<svg width="98" height="130" viewBox="0 0 98 130" fill="none" xmlns="http://www.w3.org/2000/svg">
<g id="Group 40">
<path id="Rectangle 20" d="M0 4C0 1.79086 1.79086 0 4 0H94C96.2091 0 98 1.79086 98 4V126C98 128.209 96.2091 130 94 130H4C1.79086 130 0 128.209 0 126V4Z" fill="white"/>
<g id="Mask group">
<mask id="mask0_26_657" style="mask-type:alpha" maskUnits="userSpaceOnUse" x="0" y="0" width="98" height="130">
<path id="Rectangle 22" d="M0 4C0 1.79086 1.79086 0 4 0H94C96.2091 0 98 1.79086 98 4V126C98 128.209 96.2091 130 94 130H4C1.79086 130 0 128.209 0 126V4Z" fill="white"/>
</mask>
<g mask="url(#mask0_26_657)">
<path id="Vector 4 (Stroke)" fill-rule="evenodd" clip-rule="evenodd" d="M108.121 28.878C109.293 30.0492 109.293 31.9487 108.122 33.1207L82.8467 58.4114C78.4987 62.7621 71.4463 62.7621 67.0982 58.4114C65.0936 56.4055 61.8422 56.4055 59.8376 58.4114L42.4064 75.8532C39.0208 79.2408 33.5296 79.2408 30.1441 75.8532C29.102 74.8105 27.4118 74.8105 26.3697 75.8532L-5.87803 108.121C-7.04925 109.293 -8.94874 109.293 -10.1207 108.122C-11.2926 106.951 -11.2932 105.051 -10.122 103.879L22.1257 71.6119C25.5113 68.2243 31.0025 68.2243 34.388 71.6119C35.4301 72.6546 37.1203 72.6546 38.1624 71.6119L55.5936 54.17C59.9417 49.8193 66.9941 49.8193 71.3421 54.17C73.3468 56.1759 76.5982 56.1759 78.6028 54.17L103.878 28.8793C105.049 27.7074 106.949 27.7068 108.121 28.878Z" fill="url(#paint0_linear_26_657)"/>
</g>
</g>
</g>
<defs>
<linearGradient id="paint0_linear_26_657" x1="106.349" y1="27.5116" x2="-1.77144" y2="107.332" gradientUnits="userSpaceOnUse">
<stop stop-color="#FF9049"/>
<stop offset="1" stop-color="#FF5E5E"/>
</linearGradient>
</defs>
</svg>
